<svg width="48" height="48" viewBox="0 0 48 48" fill="none" xmlns="http://www.w3.org/2000/svg">
<g clip-path="url(#clip0_20_1039)">
<path d="M16.8 6.40005H11.2V0.800049H6.40005V6.40005H0.800049V11.2H6.40005V16.8H11.2V11.2H16.8V6.40005Z" fill="#E9686A"/>
<path d="M47.2 6.40002V11.2H31.2V6.40002H47.2Z" fill="#32B1CC"/>
<path d="M47.2 35.2V40H31.2V35.2H47.2Z" fill="#55B56A"/>
<path d="M39.1999 32.8C40.5254 32.8 41.5999 31.7255 41.5999 30.4C41.5999 29.0745 40.5254 28 39.1999 28C37.8744 28 36.7999 29.0745 36.7999 30.4C36.7999 31.7255 37.8744 32.8 39.1999 32.8Z" fill="#55B56A"/>
<path d="M39.1999 47.2C40.5254 47.2 41.5999 46.1255 41.5999 44.8C41.5999 43.4745 40.5254 42.4 39.1999 42.4C37.8744 42.4 36.7999 43.4745 36.7999 44.8C36.7999 46.1255 37.8744 47.2 39.1999 47.2Z" fill="#55B56A"/>
<path d="M39.2001 23.2H24.8001V8.79999H23.2001V23.2H8.80005V24.8H23.2001V39.2H24.8001V24.8H39.2001V23.2Z" fill="#195C85"/>
<path d="M17.6001 32.8L13.6001 28.8L9.6001 32.8L5.6001 28.8L1.6001 32.7104L5.6001 36.8L1.6001 40.8L5.6001 44.8L9.6001 40.8L13.6001 44.8L17.6001 40.8L13.6001 36.8L17.6001 32.8Z" fill="#F49E21"/>
<path d="M5.6 17.6H12V12H17.6V5.6H12V0H5.6V5.6H0V12H5.6V17.6ZM1.6 10.4V7.2H7.2V1.6H10.4V7.2H16V10.4H10.4V16H7.2V10.4H1.6Z" fill="black"/>
<path d="M30.4 12H48V5.60004H30.4V12ZM32 7.20004H46.4V10.4H32V7.20004Z" fill="black"/>
<path d="M30.4 40.8H48V34.4H30.4V40.8ZM32 36H46.4V39.2H32V36Z" fill="black"/>
<path d="M36 30.4C36 32.1673 37.4327 33.6 39.2 33.6C40.9673 33.6 42.4 32.1673 42.4 30.4C42.4 28.6327 40.9673 27.2 39.2 27.2C37.4327 27.2 36 28.6327 36 30.4ZM40.8 30.4C40.8 31.2837 40.0837 32 39.2 32C38.3163 32 37.6 31.2837 37.6 30.4C37.6 29.5163 38.3163 28.8 39.2 28.8C40.0837 28.8 40.8 29.5163 40.8 30.4Z" fill="black"/>
<path d="M42.4 44.8C42.4 43.0327 40.9673 41.6 39.2 41.6C37.4327 41.6 36 43.0327 36 44.8C36 46.5673 37.4327 48 39.2 48C40.9673 48 42.4 46.5673 42.4 44.8ZM37.6 44.8C37.6 43.9163 38.3163 43.2 39.2 43.2C40.0837 43.2 40.8 43.9163 40.8 44.8C40.8 45.6837 40.0837 46.4 39.2 46.4C38.3163 46.4 37.6 45.6837 37.6 44.8Z" fill="black"/>
<path d="M23.2001 8.79999V23.2H8.80005V24.8H23.2001V39.2H24.8001V24.8H39.2001V23.2H24.8001V8.79999H23.2001Z" fill="black"/>
<path d="M5.59995 45.9312L9.59995 41.9312L13.5999 45.9312L18.7311 40.8L14.7311 36.8L18.7311 32.8L13.5999 27.6688L9.59995 31.6688L5.60635 27.6752L0.46875 32.6976L4.47515 36.7936L0.46875 40.8L5.59995 45.9312ZM2.73115 32.72L5.59355 29.92L9.59995 33.9312L13.5999 29.9312L16.4688 32.8L12.4688 36.8L16.4688 40.8L13.5999 43.6688L9.59995 39.6688L5.59995 43.6688L2.73115 40.8L6.72475 36.8064L2.73115 32.72Z" fill="black"/>
</g>
<defs>
<clipPath id="clip0_20_1039">
<rect width="48" height="48" fill="white"/>
</clipPath>
</defs>
</svg>
