<svg width="16" height="17" viewBox="0 0 16 17" fill="none" xmlns="http://www.w3.org/2000/svg">
<path d="M10.6667 1.99996C10.6667 1.53972 10.2936 1.16663 9.83333 1.16663C9.3731 1.16663 9 1.53972 9 1.99996V2.99996C9 3.4602 9.3731 3.83329 9.83333 3.83329C10.2936 3.83329 10.6667 3.4602 10.6667 2.99996V1.99996Z" fill="#4D3D36"/>
<path d="M11.3334 2.16663V2.99996C11.3334 3.39778 11.1753 3.77931 10.894 4.06062C10.6127 4.34192 10.2312 4.49996 9.83335 4.49996C9.43553 4.49996 9.054 4.34192 8.77269 4.06062C8.49139 3.77931 8.33335 3.39778 8.33335 2.99996V2.16663H5.33335V2.99996C5.33335 3.39778 5.17532 3.77931 4.89401 4.06062C4.61271 4.34192 4.23118 4.49996 3.83335 4.49996C3.43553 4.49996 3.054 4.34192 2.77269 4.06062C2.49139 3.77931 2.33335 3.39778 2.33335 2.99996V2.16663C1.89133 2.16663 1.4674 2.34222 1.15484 2.65478C0.842282 2.96734 0.666687 3.39127 0.666687 3.83329V5.49996H13V3.83329C13 3.39127 12.8244 2.96734 12.5119 2.65478C12.1993 2.34222 11.7754 2.16663 11.3334 2.16663Z" fill="#4D3D36"/>
<path d="M4.66667 1.99996C4.66667 1.53972 4.29357 1.16663 3.83333 1.16663C3.3731 1.16663 3 1.53972 3 1.99996V2.99996C3 3.4602 3.3731 3.83329 3.83333 3.83329C4.29357 3.83329 4.66667 3.4602 4.66667 2.99996V1.99996Z" fill="#4D3D36"/>
<path d="M8.00002 12.5C7.99977 11.8396 8.1632 11.1895 8.47569 10.6078C8.78818 10.0261 9.23998 9.53097 9.79069 9.16663H9.33335C9.15654 9.16663 8.98697 9.09639 8.86195 8.97136C8.73693 8.84634 8.66669 8.67677 8.66669 8.49996V7.83329C8.66669 7.65648 8.73693 7.48691 8.86195 7.36189C8.98697 7.23686 9.15654 7.16663 9.33335 7.16663H10C10.1768 7.16663 10.3464 7.23686 10.4714 7.36189C10.5964 7.48691 10.6667 7.65648 10.6667 7.83329V8.49996C10.6666 8.58595 10.6497 8.6711 10.617 8.75063C11.3796 8.46382 12.2126 8.42199 13 8.63096V6.16663H0.666687V12.5C0.666687 12.7188 0.709797 12.9356 0.793554 13.1378C0.877312 13.34 1.00008 13.5237 1.15484 13.6785C1.30961 13.8332 1.49334 13.956 1.69555 14.0398C1.89776 14.1235 2.11448 14.1666 2.33335 14.1666H8.36669C8.12526 13.6442 8.00015 13.0755 8.00002 12.5ZM4.66669 11.8333C4.66669 12.0101 4.59645 12.1797 4.47142 12.3047C4.3464 12.4297 4.17683 12.5 4.00002 12.5H3.33335C3.15654 12.5 2.98697 12.4297 2.86195 12.3047C2.73693 12.1797 2.66669 12.0101 2.66669 11.8333V11.1666C2.66669 10.9898 2.73693 10.8202 2.86195 10.6952C2.98697 10.5702 3.15654 10.5 3.33335 10.5H4.00002C4.17683 10.5 4.3464 10.5702 4.47142 10.6952C4.59645 10.8202 4.66669 10.9898 4.66669 11.1666V11.8333ZM4.66669 8.49996C4.66669 8.67677 4.59645 8.84634 4.47142 8.97136C4.3464 9.09639 4.17683 9.16663 4.00002 9.16663H3.33335C3.15654 9.16663 2.98697 9.09639 2.86195 8.97136C2.73693 8.84634 2.66669 8.67677 2.66669 8.49996V7.83329C2.66669 7.65648 2.73693 7.48691 2.86195 7.36189C2.98697 7.23686 3.15654 7.16663 3.33335 7.16663H4.00002C4.17683 7.16663 4.3464 7.23686 4.47142 7.36189C4.59645 7.48691 4.66669 7.65648 4.66669 7.83329V8.49996ZM7.66669 11.8333C7.66669 12.0101 7.59645 12.1797 7.47143 12.3047C7.3464 12.4297 7.17683 12.5 7.00002 12.5H6.33335C6.15654 12.5 5.98697 12.4297 5.86195 12.3047C5.73693 12.1797 5.66669 12.0101 5.66669 11.8333V11.1666C5.66669 10.9898 5.73693 10.8202 5.86195 10.6952C5.98697 10.5702 6.15654 10.5 6.33335 10.5H7.00002C7.17683 10.5 7.3464 10.5702 7.47143 10.6952C7.59645 10.8202 7.66669 10.9898 7.66669 11.1666V11.8333ZM7.66669 8.49996C7.66669 8.67677 7.59645 8.84634 7.47143 8.97136C7.3464 9.09639 7.17683 9.16663 7.00002 9.16663H6.33335C6.15654 9.16663 5.98697 9.09639 5.86195 8.97136C5.73693 8.84634 5.66669 8.67677 5.66669 8.49996V7.83329C5.66669 7.65648 5.73693 7.48691 5.86195 7.36189C5.98697 7.23686 6.15654 7.16663 6.33335 7.16663H7.00002C7.17683 7.16663 7.3464 7.23686 7.47143 7.36189C7.59645 7.48691 7.66669 7.65648 7.66669 7.83329V8.49996Z" fill="#4D3D36"/>
<path d="M12 9.16663C11.3408 9.16663 10.6963 9.36212 10.1481 9.72839C9.59996 10.0947 9.17272 10.6153 8.92042 11.2243C8.66813 11.8334 8.60212 12.5037 8.73074 13.1503C8.85935 13.7969 9.17682 14.3908 9.643 14.857C10.1092 15.3232 10.7031 15.6406 11.3497 15.7692C11.9963 15.8979 12.6665 15.8319 13.2756 15.5796C13.8847 15.3273 14.4053 14.9 14.7716 14.3519C15.1379 13.8037 15.3334 13.1592 15.3334 12.5C15.3334 12.0622 15.2471 11.6288 15.0796 11.2243C14.9121 10.8199 14.6666 10.4525 14.357 10.1429C14.0475 9.83341 13.6801 9.58788 13.2756 9.42036C12.8712 9.25284 12.4378 9.16663 12 9.16663ZM13.2357 13.7356C13.1732 13.7981 13.0884 13.8332 13 13.8332C12.9116 13.8332 12.8269 13.7981 12.7644 13.7356L11.7644 12.7356C11.7018 12.6731 11.6667 12.5884 11.6667 12.5V10.5C11.6667 10.4116 11.7018 10.3268 11.7643 10.2643C11.8268 10.2017 11.9116 10.1666 12 10.1666C12.0884 10.1666 12.1732 10.2017 12.2357 10.2643C12.2982 10.3268 12.3334 10.4116 12.3334 10.5V12.362L13.2357 13.2643C13.2982 13.3268 13.3333 13.4116 13.3333 13.5C13.3333 13.5883 13.2982 13.6731 13.2357 13.7356Z" fill="#4D3D36"/>
</svg>
