<svg width="64" height="64" viewBox="0 0 64 64" fill="none" xmlns="http://www.w3.org/2000/svg">
<path d="M27.4543 51.6981H36.5458C37.5221 51.6981 38.3135 50.9066 38.3135 49.9304V45.3846H25.6865V49.9304C25.6865 50.9068 26.478 51.6981 27.4543 51.6981Z" fill="#365E7D"/>
<path d="M25.6865 48.3814C27.7064 48.8976 29.8216 49.1728 32 49.1728C34.1784 49.1728 36.2936 48.8976 38.3135 48.3814V45.3846H25.6865V48.3814Z" fill="#2B4D66"/>
<path d="M28.7173 51.6981H35.2833V63.0625H28.7173V51.6981Z" fill="#ECF4FF"/>
<path d="M32.0001 46.3947C44.5528 46.3947 54.7287 36.2188 54.7287 23.6661C54.7287 11.1135 44.5528 0.9375 32.0001 0.9375C19.4474 0.9375 9.27148 11.1135 9.27148 23.6661C9.27148 36.2188 19.4474 46.3947 32.0001 46.3947Z" fill="#DF75A5"/>
<path d="M46.6906 6.32434C50.0499 10.2862 52.0774 15.4132 52.0774 21.0145C52.0774 33.5672 41.9014 43.7431 29.3488 43.7431C23.7476 43.7431 18.6206 41.7157 14.6587 38.3562C18.8278 43.273 25.0492 46.3947 32.0006 46.3947C44.5533 46.3947 54.7292 36.2187 54.7292 23.6661C54.7291 16.7147 51.6074 10.4935 46.6906 6.32434Z" fill="#DD5790"/>
<path d="M32.0001 41.344C41.7634 41.344 49.678 33.4294 49.678 23.6662C49.678 13.9029 41.7634 5.98828 32.0001 5.98828C22.2369 5.98828 14.3223 13.9029 14.3223 23.6662C14.3223 33.4294 22.2369 41.344 32.0001 41.344Z" fill="#DA387D"/>
<path d="M41.6434 29.0234L36.2861 23.6661L41.6434 18.3089C42.8269 17.1254 42.8269 15.2066 41.6434 14.0231C40.4599 12.8396 38.5411 12.8396 37.3576 14.0231L32.0004 19.3804L26.6431 14.0231C25.4596 12.8396 23.5409 12.8396 22.3574 14.0231C21.1739 15.2066 21.1739 17.1254 22.3574 18.3089L27.7146 23.6661L22.3574 29.0234C21.1739 30.2069 21.1739 32.1256 22.3574 33.3091C23.5409 34.4926 25.4596 34.4926 26.6431 33.3091L32.0004 27.9519L37.3576 33.3091C38.5411 34.4926 40.4599 34.4926 41.6434 33.3091C42.8269 32.1256 42.8267 30.2069 41.6434 29.0234Z" fill="#ECF4FF"/>
<path d="M35.2827 58.63C34.7648 58.63 34.3452 59.0496 34.3452 59.5675V63.0625C34.3452 63.5804 34.7648 64 35.2827 64C35.8006 64 36.2202 63.5804 36.2202 63.0625V59.5675C36.2202 59.0496 35.8005 58.63 35.2827 58.63Z" fill="black"/>
<path d="M19.1816 11.4583C18.7884 11.1214 18.1966 11.1668 17.8596 11.5599C14.9743 14.9259 13.3853 19.2253 13.3853 23.6663C13.3853 33.9305 21.7359 42.2813 32.0003 42.2813C42.2645 42.2813 50.6153 33.9305 50.6153 23.6663C50.6153 13.402 42.2645 5.05127 32.0003 5.05127C28.1239 5.05127 24.409 6.23089 21.2573 8.46239C20.8348 8.76164 20.7346 9.34664 21.0339 9.76927C21.3331 10.1918 21.9183 10.2918 22.3408 9.99264C25.174 7.98664 28.5141 6.92627 32.0003 6.92627C41.2308 6.92627 48.7403 14.4358 48.7403 23.6663C48.7403 32.8968 41.2308 40.4063 32.0003 40.4063C22.7698 40.4063 15.2603 32.8968 15.2603 23.6663C15.2603 19.6728 16.689 15.8066 19.2833 12.7801C19.6203 12.3871 19.5748 11.7953 19.1816 11.4583Z" fill="black"/>
<path d="M32.0002 0C18.9506 0 8.33398 10.6167 8.33398 23.6663C8.33398 34.1874 15.2357 43.1254 24.749 46.1948V49.9301C24.749 51.4224 25.9625 52.6362 27.454 52.6362H27.7797V63.0625C27.7797 63.5804 28.1995 64 28.7172 64C29.235 64 29.6547 63.5804 29.6547 63.0625V52.6362H34.3452V55.1925C34.3452 55.7104 34.7649 56.13 35.2827 56.13C35.8006 56.13 36.2202 55.7104 36.2202 55.1925V52.6362H36.5465C38.0381 52.6362 39.2515 51.4223 39.2515 49.9301V46.1953C42.3462 45.1998 45.2261 43.5695 47.6989 41.375C48.0861 41.0314 48.1215 40.4389 47.7777 40.0515C47.434 39.6644 46.8416 39.6289 46.4542 39.9726C42.4689 43.5096 37.3356 45.4576 32.0002 45.4576C19.9845 45.4576 10.209 35.6821 10.209 23.6664C10.209 11.6506 19.9845 1.875 32.0002 1.875C44.016 1.875 53.7915 11.6505 53.7915 23.6663C53.7915 28.5016 52.2414 33.0799 49.3087 36.9059C48.9936 37.3167 49.0715 37.9053 49.4825 38.2202C49.8935 38.5354 50.4819 38.4575 50.7969 38.0465C53.9826 33.8903 55.6666 28.9176 55.6666 23.6663C55.6665 10.6167 45.0497 0 32.0002 0ZM37.3765 46.715V49.9301C37.3765 50.3885 37.0041 50.7612 36.5465 50.7612H27.454C26.9964 50.7612 26.624 50.3885 26.624 49.9301V46.7163C28.3517 47.1191 30.1515 47.3326 32.0002 47.3326C33.8247 47.3325 35.6275 47.1224 37.3765 46.715Z" fill="black"/>
<path d="M20.5322 31.1662C20.5322 32.2261 20.945 33.2225 21.6944 33.972C22.4439 34.7214 23.4402 35.1341 24.5001 35.1341C25.56 35.1341 26.5565 34.7214 27.3059 33.972L32.0002 29.2777L36.6945 33.9721C37.444 34.7215 38.4405 35.1342 39.5004 35.1342C40.5602 35.1342 41.5566 34.7215 42.3061 33.9721C43.0555 33.2226 43.4682 32.2261 43.4682 31.1664C43.4682 30.1065 43.0555 29.11 42.3061 28.3605L37.6117 23.6662L42.3061 18.972C43.0555 18.2225 43.4682 17.226 43.4682 16.1661C43.4682 15.1062 43.0555 14.1099 42.3061 13.3604C41.5566 12.611 40.5601 12.1982 39.5004 12.1982C38.4405 12.1982 37.444 12.611 36.6945 13.3604L32.0002 18.0546L27.306 13.3602C26.5565 12.6109 25.5601 12.1981 24.5002 12.1981C23.4404 12.1981 22.4439 12.6109 21.6945 13.3602C20.945 14.1097 20.5324 15.1062 20.5324 16.166C20.5324 17.2259 20.9451 18.2224 21.6945 18.9719L26.3887 23.6661L21.6945 28.3604C20.945 29.1099 20.5322 30.1064 20.5322 31.1662ZM23.0202 29.6862L28.3774 24.3291C28.7435 23.9629 28.7435 23.3694 28.3774 23.0032L23.0202 17.6461C22.6249 17.2509 22.4072 16.7252 22.4072 16.1661C22.4072 15.6071 22.6249 15.0815 23.0202 14.6862C23.4156 14.2909 23.9411 14.0732 24.5002 14.0732C25.0594 14.0732 25.5849 14.2909 25.9802 14.6862L31.3374 20.0434C31.7034 20.4094 32.2969 20.4094 32.6632 20.0434L38.0204 14.6862C38.4156 14.2909 38.9412 14.0732 39.5004 14.0732C40.0594 14.0732 40.585 14.2909 40.9802 14.6862C41.3756 15.0815 41.5932 15.6071 41.5932 16.1661C41.5932 16.7252 41.3756 17.2509 40.9802 17.6461L35.6231 23.0032C35.257 23.3695 35.257 23.963 35.6231 24.3291L40.9802 29.6862C41.3756 30.0815 41.5932 30.6071 41.5932 31.1662C41.5932 31.7252 41.3756 32.2509 40.9802 32.6461C40.585 33.0415 40.0594 33.2591 39.5004 33.2591C38.9412 33.2591 38.4156 33.0415 38.0204 32.6461L32.6632 27.289C32.4801 27.106 32.2401 27.0145 32.0002 27.0145C31.7604 27.0145 31.5204 27.106 31.3374 27.289L25.9802 32.6461C25.5849 33.0415 25.0594 33.2591 24.5002 33.2591C23.9411 33.2591 23.4156 33.0415 23.0202 32.6461C22.6249 32.2509 22.4072 31.7252 22.4072 31.1662C22.4072 30.6071 22.6249 30.0815 23.0202 29.6862Z" fill="black"/>
</svg>
