<svg width="25" height="24" viewBox="0 0 25 24" fill="none" xmlns="http://www.w3.org/2000/svg">
<g clip-path="url(#clip0_39_2187)">
<path d="M23.5587 19.2116L5.28809 0.941008C4.49126 0.144176 3.1994 0.144176 2.40381 0.941008L1.44089 1.90244C0.644054 2.69952 0.644054 3.99138 1.44089 4.78697L19.7115 23.0576C20.5086 23.8544 21.8005 23.8544 22.596 23.0576L23.5575 22.0962C24.3558 21.3006 24.3558 20.0087 23.5587 19.2116Z" fill="#F44336"/>
<path d="M19.7115 0.941066L1.44089 19.2117C0.644054 20.0088 0.644054 21.3006 1.44089 22.0962L2.40231 23.0576C3.1994 23.8545 4.49126 23.8545 5.28685 23.0576L23.5587 4.78827C24.3558 3.99144 24.3558 2.69958 23.5587 1.90399L22.5973 0.94256C21.8005 0.144233 20.5086 0.144233 19.7115 0.941066Z" fill="#F44336"/>
<path d="M20.6731 23.9986C20.064 23.9986 19.4534 23.766 18.9883 23.3024L12.5 16.8154L6.01308 23.3024C5.08029 24.2324 3.5693 24.2324 2.64049 23.3024L1.19773 21.8594C0.268919 20.9305 0.267425 19.4171 1.19623 18.4883L7.68444 12L1.19773 5.51308C0.267425 4.58303 0.267425 3.0693 1.19773 2.14049L2.64049 0.697726C3.5693 -0.231081 5.08154 -0.232575 6.01184 0.696232L12.5 7.18594L18.9868 0.697726C19.9198 -0.232575 21.4305 -0.232575 22.3594 0.697726L23.8024 2.14049C24.7324 3.07079 24.7324 4.58428 23.8024 5.51308L17.3154 12L23.8024 18.4868C23.8024 18.4868 23.8036 18.4868 23.8036 18.4883C24.7324 19.4183 24.7312 20.932 23.8024 21.8594L22.3594 23.3024C21.8945 23.766 21.2839 23.9986 20.6731 23.9986ZM12.5 14.3527C12.761 14.3527 13.0222 14.4521 13.2207 14.6518L20.4283 21.8594C20.5618 21.9928 20.7846 21.9928 20.9166 21.8594L22.3594 20.4166C22.4928 20.2834 22.4913 20.0603 22.3581 19.927L15.1518 12.7207C14.7533 12.3223 14.7533 11.6763 15.1518 11.2779L22.3594 4.07032C22.4928 3.9371 22.4928 3.71399 22.3594 3.58201L20.9166 2.14049C20.7834 2.00727 20.5618 2.00852 20.427 2.14199L13.2207 9.34958C12.8387 9.73157 12.1614 9.73157 11.7779 9.34958L4.57157 2.14049C4.43834 2.00727 4.21523 2.00727 4.08351 2.14049L2.64049 3.58351C2.50727 3.71673 2.50727 3.93959 2.64049 4.07157L9.84809 11.2792C10.2465 11.6776 10.2465 12.3238 9.84809 12.7222L2.64049 19.9298C2.50852 20.063 2.50727 20.2861 2.64049 20.4178L4.08351 21.8609C4.21673 21.9941 4.43834 21.9928 4.57306 21.8594L11.7792 14.6533C11.9779 14.4533 12.2388 14.3527 12.5 14.3527Z" fill="#4D3D36"/>
</g>
<defs>
<clipPath id="clip0_39_2187">
<rect width="24" height="24" fill="white" transform="translate(0.5)"/>
</clipPath>
</defs>
</svg>
