<svg width="16" height="17" viewBox="0 0 16 17" fill="none" xmlns="http://www.w3.org/2000/svg">
<g clip-path="url(#clip0_266_3995)">
<path d="M14.2192 16.5C14.4771 16.5 14.6879 16.2908 14.6879 16.0312V13.9896H15.5312C15.7901 13.9896 16 13.7797 16 13.5208V4.48334C16 4.22446 15.7901 4.01459 15.5312 4.01459H7.49792C7.23905 4.01459 7.02917 4.22446 7.02917 4.48334V13.5208C7.02917 13.7797 7.23905 13.9896 7.49792 13.9896H11.5146L13.8877 16.3627C13.9773 16.4524 14.0972 16.5 14.2192 16.5Z" fill="#00B6FF"/>
<path d="M14.2192 16.5C14.4771 16.5 14.6879 16.2908 14.6879 16.0312V13.9896H15.5312C15.7901 13.9896 16 13.7797 16 13.5208V4.48334C16 4.22446 15.7901 4.01459 15.5312 4.01459H11.5146V13.9896L13.8877 16.3627C13.9773 16.4524 14.0972 16.5 14.2192 16.5Z" fill="#4893FF"/>
<path d="M13.4756 10.8967L12.5932 7.36684C12.4692 6.87118 12.0258 6.52502 11.5144 6.52502C11.0033 6.52502 10.5599 6.87121 10.436 7.36687L9.55359 10.8967C9.49081 11.1479 9.64353 11.4024 9.89469 11.4652C10.1458 11.528 10.4003 11.3752 10.4631 11.1241L10.6254 10.475H12.4039L12.5661 11.1241C12.6289 11.3753 12.8834 11.528 13.1346 11.4652C13.3857 11.4024 13.5384 11.1479 13.4756 10.8967ZM10.8597 9.53752L11.3455 7.59421C11.3649 7.51668 11.4343 7.46249 11.5148 7.46249C11.5949 7.46249 11.6643 7.51665 11.6837 7.59421L12.1695 9.53752H10.8597Z" fill="#F5FAFF"/>
<path d="M1.78078 12.9854C1.52294 12.9854 1.31212 12.7762 1.31212 12.5167V10.475H0.46875C0.209875 10.475 0 10.2651 0 10.0063V0.96875C0 0.709875 0.209875 0.5 0.46875 0.5H8.50206C8.76094 0.5 8.97081 0.709875 8.97081 0.96875V10.0063C8.97081 10.2651 8.76094 10.475 8.50206 10.475H4.48541L2.11231 12.8481C2.02266 12.9378 1.90275 12.9854 1.78078 12.9854Z" fill="#FFCB00"/>
<path d="M8.50207 0.5H4.48541V10.475H8.50207C8.76094 10.475 8.97082 10.2651 8.97082 10.0063V0.96875C8.97082 0.709875 8.76098 0.5 8.50207 0.5Z" fill="#FF9D22"/>
<path d="M6.62687 7.54849C6.09256 7.39024 5.59719 7.1313 5.16544 6.79055C5.74281 6.12861 6.16212 5.32964 6.37412 4.45005H6.49375C6.75262 4.45005 6.9625 4.24017 6.9625 3.9813C6.9625 3.72242 6.75262 3.51255 6.49375 3.51255H4.95416V2.97711C4.95416 2.71824 4.74428 2.50836 4.48541 2.50836C4.22653 2.50836 4.01666 2.71824 4.01666 2.97711V3.51252H2.47709C2.21822 3.51252 2.00834 3.72239 2.00834 3.98127C2.00834 4.24014 2.21822 4.45002 2.47709 4.45002H5.40356C5.21962 5.07596 4.89853 5.64614 4.48544 6.13139C4.38816 6.0128 4.30631 5.89017 4.22156 5.76102L3.87312 5.23027C3.73103 5.01386 3.44041 4.95358 3.22403 5.09567C3.00759 5.23777 2.94734 5.52839 3.08944 5.74477L3.43778 6.27539C3.55397 6.45246 3.68047 6.62142 3.81591 6.78205C3.16241 7.28961 2.56162 7.47577 2.32953 7.55299C2.08381 7.63446 1.95069 7.89974 2.03216 8.14546C2.09741 8.34224 2.28044 8.46677 2.477 8.46677C2.62031 8.46677 3.59056 8.17339 4.48541 7.44642C5.37969 8.18758 6.34819 8.46677 6.49391 8.46677C6.69619 8.46677 6.88281 8.3348 6.94319 8.13102C7.01672 7.88283 6.87509 7.62199 6.62687 7.54849Z" fill="#F5FAFF"/>
<path d="M6.62688 7.54849C6.09257 7.39024 5.59719 7.1313 5.16544 6.79055C5.74282 6.12861 6.16213 5.32964 6.37413 4.45005H6.49376C6.75263 4.45005 6.96251 4.24017 6.96251 3.9813C6.96251 3.72242 6.75263 3.51255 6.49376 3.51255H4.95416V2.97711C4.95416 2.71824 4.74429 2.50836 4.48541 2.50836V4.45005H5.40354C5.2196 5.07599 4.89851 5.64617 4.48541 6.13142V7.44652C5.37969 8.18767 6.34819 8.46686 6.49391 8.46686C6.69619 8.46686 6.88282 8.33489 6.94319 8.13111C7.01673 7.88283 6.8751 7.62199 6.62688 7.54849Z" fill="#DFE9EE"/>
<path d="M12.5661 11.1241C12.6289 11.3753 12.8834 11.528 13.1345 11.4652C13.3857 11.4024 13.5384 11.1479 13.4756 10.8967L12.5932 7.36684C12.4693 6.87124 12.026 6.52512 11.5146 6.52502V7.46252C11.5147 7.46252 11.5147 7.46249 11.5148 7.46249C11.5949 7.46249 11.6643 7.51665 11.6837 7.59421L12.1695 9.53752H11.5146V10.475H12.4038L12.5661 11.1241Z" fill="#DFE9EE"/>
</g>
<defs>
<clipPath id="clip0_266_3995">
<rect width="16" height="16" fill="white" transform="translate(0 0.5)"/>
</clipPath>
</defs>
</svg>
