<svg width="16" height="17" viewBox="0 0 16 17" fill="none" xmlns="http://www.w3.org/2000/svg">
<path d="M1.74144 13.2545H14.2586C15.1389 12.0076 15.6563 10.4861 15.6563 8.84369C15.6563 4.61522 12.2285 1.18738 8 1.18738C3.77153 1.18738 0.343689 4.61522 0.343689 8.84369C0.343689 10.4861 0.861064 12.0076 1.74144 13.2545Z" fill="#FFC839"/>
<path d="M14.1133 12.9018C13.6371 11.9495 12.8015 11.6836 12.4207 11.6105C12.4207 11.6105 11.4469 11.4327 10.5864 11.0829C10.56 11.1675 10.5023 11.2425 10.4176 11.2882C9.83065 11.6047 9.0389 11.8643 8.0208 11.8643C7.81346 11.8643 7.61599 11.8531 7.42724 11.8332C7.43212 11.8442 7.43674 11.8551 7.4419 11.8662C7.23233 11.8927 6.56118 11.9947 5.89765 12.2793C4.83449 12.7353 4.27252 13.4498 4.27252 14.3454V15.5326C5.37562 16.1487 6.64671 16.5 7.99999 16.5C10.586 16.5 12.8724 15.2177 14.2586 13.2545C14.2148 13.1266 14.1666 13.0084 14.1133 12.9018Z" fill="#72AAFC"/>
<path d="M5.45011 11.0679C4.58096 11.4276 3.57927 11.6105 3.57927 11.6105C3.19849 11.6836 2.36283 11.9495 1.88667 12.9018C1.83339 13.0084 1.78521 13.1266 1.74142 13.2545C2.41249 14.2049 3.29452 14.9957 4.31939 15.5587C4.31939 15.2375 4.31939 14.839 4.31939 14.3454C4.31939 12.2044 7.51283 11.9051 7.51283 11.9051C7.50158 11.8827 7.49117 11.8608 7.48114 11.839C6.71786 11.7665 6.10246 11.5462 5.62349 11.2878C5.53399 11.2395 5.47424 11.1585 5.45011 11.0679Z" fill="#548BED"/>
<path d="M10.6331 10.8162L10.033 9.85236C9.94856 9.71673 9.78624 9.65233 9.63131 9.6913C9.16296 9.80914 8.61328 9.89811 8.02081 9.89811C7.95906 9.89811 7.8979 9.89692 7.83712 9.89505V10.4078C7.74656 10.4526 7.47071 10.612 7.3494 10.9385C7.24943 11.2077 7.28056 11.5195 7.44187 11.8661C7.40965 11.8702 7.36643 11.8761 7.31412 11.8841C7.53696 11.9114 7.77212 11.9268 8.02078 11.9268C9.07256 11.9268 9.89049 11.6586 10.4969 11.3316C10.6825 11.2315 10.7445 10.9952 10.6331 10.8162Z" fill="#548BED"/>
<path d="M6.40994 9.69102C6.25497 9.65199 6.09263 9.7164 6.00816 9.85205L5.40816 10.8158C5.29672 10.9948 5.35866 11.2311 5.54425 11.3312C6.04925 11.6036 6.70147 11.8347 7.51263 11.9046C6.96703 10.8186 7.884 10.4377 7.884 10.4377V9.89637C7.34372 9.88399 6.84219 9.7999 6.40994 9.69102Z" fill="#3E7FDD"/>
<path d="M10.7707 9.3318C10.5598 8.59311 10.4724 8.01646 10.4535 7.57086C10.2933 8.14889 10.0839 8.6607 9.82893 9.09705C9.68181 9.34886 9.49918 9.57436 9.28709 9.76977C8.97025 11.6182 9.56271 13.0107 10.029 13.7716C10.1272 13.932 10.389 13.8647 10.3865 13.6796C10.3655 12.1471 11.3387 11.3208 10.7707 9.3318Z" fill="#45304C"/>
<path d="M8.02047 1.73063C8.51191 1.73063 8.92881 1.82522 9.27975 1.97097C9.28966 1.90691 9.29488 1.84125 9.29488 1.77441C9.29484 1.07056 8.72428 0.5 8.02047 0.5C7.31666 0.5 6.74606 1.07056 6.74606 1.77441C6.74606 1.84125 6.75128 1.90688 6.76119 1.97097C7.11213 1.82522 7.52903 1.73063 8.02047 1.73063Z" fill="#56415E"/>
<path d="M8.02047 1.46062C7.51959 0.95975 8.02047 0.5 8.02047 0.5C7.31666 0.5 6.74606 1.07056 6.74606 1.77441C6.74606 1.84125 6.75128 1.90688 6.76119 1.97097C7.11213 1.82522 7.52903 1.73066 8.02047 1.73066V1.46062Z" fill="#45304C"/>
<path d="M6.5385 2.15616C6.93172 1.95329 7.42069 1.81251 8.02047 1.81251C8.62025 1.81251 9.10922 1.95329 9.50244 2.15619C9.57228 2.19223 9.63969 2.23141 9.70506 2.27301C9.31038 1.77813 8.70266 1.46063 8.02047 1.46063C7.33828 1.46063 6.73056 1.7781 6.33588 2.27298C6.40122 2.23138 6.46866 2.19219 6.5385 2.15616Z" fill="#D3DCFB"/>
<path d="M5.53 5.71359C5.56565 5.59693 5.61443 5.49593 5.6804 5.42159C5.73978 5.35468 5.77703 5.2719 5.77968 5.18334C5.79512 4.666 5.99397 2.98987 7.90356 3.7219C7.97859 3.75065 8.06234 3.75065 8.13737 3.7219C10.047 2.98987 10.2458 4.666 10.2612 5.18334C10.2639 5.2719 10.3012 5.35468 10.3605 5.42159C10.4265 5.49593 10.4753 5.59693 10.5109 5.71359V5.71356C10.6077 5.64906 10.7579 5.60459 10.8937 5.60778L10.8937 5.60737V4.35172C10.8937 3.40018 10.3632 2.51834 9.50243 2.07425C9.10922 1.87137 8.62025 1.73059 8.02047 1.73059C7.42068 1.73059 6.93172 1.87137 6.5385 2.07425C5.67768 2.51834 5.14725 3.40018 5.14725 4.35172V5.60737L5.14728 5.60778C5.28303 5.60462 5.43325 5.64909 5.53 5.71359Z" fill="#56415E"/>
<path d="M8.02047 1.73065C7.42068 1.73065 6.93172 1.87143 6.5385 2.07431C5.67768 2.5184 5.14725 3.40025 5.14725 4.35178V5.60743L5.14728 5.60784C5.28306 5.60465 5.43325 5.64915 5.53 5.71362C5.56565 5.59696 5.61443 5.49596 5.6804 5.42162C5.73978 5.35471 5.77703 5.27193 5.77968 5.18337C5.79484 4.67596 5.98662 3.05409 7.79572 3.68271C7.78815 3.67284 7.7809 3.6629 7.77272 3.65315C6.9239 2.64284 8.02047 1.73065 8.02047 1.73065Z" fill="#45304C"/>
<path d="M5.50635 7.20539C5.50635 7.20539 5.3505 6.21911 5.53 5.63174C5.36713 5.52317 5.05247 5.47017 4.91097 5.60852C4.62122 5.89177 4.83354 6.31952 4.93513 6.58971C4.96632 6.67267 4.98644 6.75658 4.99554 6.84064C5.01532 7.0233 5.11435 7.29064 5.52497 7.28436C5.51875 7.25805 5.51241 7.23214 5.50635 7.20539Z" fill="#FC9460"/>
<path d="M11.13 5.60852C10.9884 5.47017 10.6738 5.52317 10.5109 5.63174C10.6904 6.21911 10.5346 7.20539 10.5346 7.20539C10.5285 7.23214 10.5222 7.25805 10.516 7.28436C10.9266 7.29067 11.0256 7.02333 11.0454 6.84064C11.0545 6.75658 11.0746 6.67267 11.1058 6.58971C11.2074 6.31952 11.4197 5.89177 11.13 5.60852Z" fill="#FFAA7B"/>
<path d="M10.3758 5.3261C10.3167 5.25941 10.2841 5.1815 10.2817 5.10081C10.2726 4.79369 10.195 4.042 9.67406 3.6951C9.30453 3.44903 8.78506 3.4516 8.13006 3.70278C8.05937 3.72988 7.98153 3.72988 7.91088 3.70278C7.83147 3.67235 7.75413 3.64572 7.67872 3.62256C7.14847 3.97813 7.06934 4.74472 7.06 5.05825C7.05753 5.14081 7.02428 5.22044 6.96372 5.28863C6.63013 5.66456 6.70319 6.76288 6.781 7.21503C6.95338 7.97585 7.20306 8.63925 7.523 9.18685C7.78763 9.63972 8.16366 10.01 8.62134 10.2736C9.12969 10.0133 9.54484 9.62419 9.82894 9.13794C10.1418 8.60263 10.3859 7.95391 10.5548 7.2085C10.6279 6.74372 10.7058 5.69794 10.3758 5.3261Z" fill="#FFC7AB"/>
<path d="M7.54882 9.13799C7.23595 8.60252 6.99179 7.95383 6.82326 7.20986C6.74714 6.76771 6.67573 5.69374 7.00192 5.32611C7.06114 5.25943 7.09367 5.18155 7.09607 5.10083C7.10523 4.79371 7.18279 4.04196 7.70373 3.69508C7.72614 3.68014 7.74917 3.66621 7.7727 3.65311C7.18257 3.45293 6.70998 3.46668 6.36689 3.69508C5.84592 4.04199 5.76839 4.79371 5.75923 5.10083C5.75682 5.18155 5.72429 5.25943 5.66507 5.32611C5.33885 5.69371 5.41029 6.76771 5.48642 7.20986C5.65498 7.95383 5.89914 8.60252 6.21198 9.13799C6.5296 9.68158 7.01064 10.1044 7.60301 10.3606C7.86835 10.4754 8.1726 10.4754 8.43789 10.3606C8.52407 10.3234 8.60757 10.2821 8.68885 10.238C8.21129 9.97836 7.82026 9.60249 7.54882 9.13799Z" fill="#FFAA7B"/>
<path d="M12.6915 2.79321C12.1907 3.20168 11.6866 3.85721 11.9837 4.72674C12.514 6.27871 11.1274 8.39831 12.6853 9.95618C13.6021 10.873 14.698 10.8292 15.4448 10.638C15.583 10.0625 15.6563 9.46165 15.6563 8.84368C15.6563 6.38309 14.4953 4.1939 12.6915 2.79321Z" fill="#FFDD40"/>
<path d="M3.3085 2.79321C3.80928 3.20168 4.31338 3.85721 4.01628 4.72674C3.48603 6.27871 4.87256 8.39831 3.31469 9.95618C2.39791 10.873 1.30203 10.8292 0.55522 10.638C0.41697 10.0625 0.343689 9.46165 0.343689 8.84368C0.343689 6.38309 1.50469 4.1939 3.3085 2.79321Z" fill="#FFDD40"/>
<path d="M13.1912 14.4708C13.0371 13.8541 12.6549 13.4964 12.3451 13.3006C12.1498 13.1771 11.8951 13.3161 11.8951 13.5472V15.4362C12.3612 15.1602 12.7955 14.8361 13.1912 14.4708Z" fill="#548BED"/>
<path d="M9.90274 10.4467C9.90274 11.2831 10.0407 12.0987 10.6356 12.1998C10.8691 11.3936 11.1324 10.5985 10.7707 9.33183C10.762 9.3013 10.7538 9.27146 10.7455 9.24146C10.3589 9.44871 9.90274 9.82492 9.90274 10.4467Z" fill="#56415E"/>
</svg>
