<svg width="64" height="64" viewBox="0 0 64 64" fill="none" xmlns="http://www.w3.org/2000/svg">
<g clip-path="url(#clip0_44_15937)">
<path d="M59.4944 46.875C61.4979 42.8022 62.625 38.2205 62.625 33.375C62.625 16.4613 48.9137 2.75 32 2.75C15.0863 2.75 1.375 16.4613 1.375 33.375C1.375 38.2205 2.50212 42.8022 4.50562 46.875H59.4944Z" fill="#64C0F4"/>
<path d="M22.6423 31.2581H25.24V33.1636H22.6423V31.2581Z" fill="#0F3E4C"/>
<path d="M38.7622 31.2581H41.3598V33.1636H38.7622V31.2581Z" fill="#0F3E4C"/>
<path d="M23.0571 32.9706C21.6889 35.036 22.2197 37.5614 22.9154 39.3289C25.3459 45.5039 31.8945 47.8214 31.9604 47.8442L32.0011 47.8582L32.0419 47.8442C32.1077 47.8214 38.6565 45.5039 41.087 39.3289C41.7825 37.5619 42.3132 35.0372 40.946 32.972L40.9255 32.963C40.0295 32.571 39.062 32.3687 38.084 32.3687C34.033 32.3687 29.976 32.3687 25.9162 32.3687C24.9382 32.3687 23.9707 32.571 23.0747 32.963L23.0571 32.9706Z" fill="#EBF0F2"/>
<path d="M23.0747 32.9632L23.0572 32.9708C21.6888 35.0362 22.2198 37.5615 22.9153 39.329C25.3458 45.504 31.8944 47.8215 31.9604 47.8443L32.0012 47.8583L32.0419 47.8443C32.045 47.8432 32.0639 47.8365 32.0964 47.8244C32.0647 47.7917 32.0342 47.7589 32.0012 47.726C27.5378 43.2627 30.5512 39.1592 30.5512 39.1592L27.4785 32.3687C26.9577 32.3687 26.4372 32.3687 25.9162 32.3687C24.938 32.3688 23.9707 32.5712 23.0747 32.9632Z" fill="#C2D4E6"/>
<path d="M56.5139 40.5191C55.8467 39.3274 54.788 38.404 53.5164 37.9057L49.9876 36.5229C50.368 38.0247 49.5901 39.873 47.673 42.0179C44.8862 45.1355 40.776 46.7082 37.8187 47.4786C34.607 48.3152 32.0226 48.4127 32.0055 48.4136C31.9797 48.4126 29.4004 48.3159 26.1892 47.48C23.2301 46.7097 19.1175 45.1369 16.3295 42.0177C14.412 39.8725 13.6341 38.0239 14.015 36.5217L10.4839 37.9056C9.21223 38.404 8.15348 39.3272 7.48636 40.519C6.50273 42.2759 5.44886 44.4857 4.44348 46.75C7.50473 53.0455 12.66 58.134 19.0029 61.1116V57.9855C19.0029 57.2351 19.6167 56.6212 20.3671 56.6212H43.7171C44.4675 56.6212 45.0814 57.2351 45.0814 57.9855V61.072C51.3856 58.0889 56.5086 53.0174 59.5564 46.7499C58.5511 44.4857 57.4972 42.2759 56.5139 40.5191Z" fill="#2C2C42"/>
<path d="M16.3306 42.779C16.4895 42.7002 16.6246 42.5821 16.7234 42.4377C16.5897 42.3006 16.4576 42.1615 16.3294 42.018C14.4119 39.8727 13.634 38.0241 14.0149 36.522L10.4837 37.9058C9.21211 38.4042 8.15336 39.3275 7.48623 40.5192C6.50273 42.276 5.44886 44.4858 4.44348 46.7501C6.01186 49.9755 8.13111 52.8829 10.6769 55.3531C11.1931 53.0976 11.9871 49.6565 12.5356 47.4102C13.2271 44.5785 15.4349 43.223 16.3306 42.779Z" fill="#212135"/>
<path d="M32.0001 64.0001C36.7293 64.0001 41.2079 62.928 45.2066 61.0136V57.7356C45.2066 56.9852 44.5927 56.3713 43.8423 56.3713H20.2422C19.4918 56.3713 18.8779 56.9852 18.8779 57.7356V61.0531C22.8552 62.9423 27.3039 64.0001 32.0001 64.0001Z" fill="#FBCC68"/>
<path d="M29.8396 59.4338C29.8396 57.9853 30.8191 56.7555 32.1482 56.3713H20.2423C19.4919 56.3713 18.8781 56.9852 18.8781 57.7356V61.0531C22.2399 62.65 25.9394 63.6497 29.8397 63.9218L29.8396 59.4338Z" fill="#EFAA42"/>
<path d="M42.5603 33.6122L41.1072 33.0427L40.9253 32.963C40.0293 32.571 39.0618 32.3687 38.0838 32.3687C34.0328 32.3687 29.9758 32.3687 25.9161 32.3687C24.9381 32.3687 23.9706 32.571 23.0746 32.963L22.8927 33.0427L21.4396 33.6122C22.6218 38.3448 26.9012 41.8507 32 41.8507C37.0987 41.8507 41.3781 38.3448 42.5603 33.6122Z" fill="#C2D4E6"/>
<path d="M23.8348 32.7954C23.9158 32.7756 23.9968 32.7555 24.0785 32.7366C24.1301 32.6849 24.1813 32.6305 24.232 32.5737C23.8368 32.6704 23.4492 32.7991 23.0746 32.963L22.8927 33.0426L21.4396 33.6121C22.4328 37.5882 25.6126 40.6975 29.6273 41.5902C29.8545 40.1085 30.5511 39.1591 30.5511 39.1591L30.4272 38.8854C27.236 38.2851 24.6777 35.8944 23.8348 32.7954Z" fill="#99B8DA"/>
<path d="M40.2497 32.7078C39.5511 32.4837 38.8205 32.3687 38.0839 32.3687C34.0329 32.3687 29.9759 32.3687 25.9161 32.3687C25.1795 32.3687 24.4489 32.4837 23.7502 32.7078C24.6087 36.4727 27.975 39.283 32 39.283C36.025 39.283 39.3912 36.4727 40.2497 32.7078Z" fill="#E0D3CD"/>
<path d="M38.0048 29.2272C36.9521 30.7173 35.5403 32.1098 33.6575 33.0205C33.1452 33.2683 32.5828 33.405 32.0138 33.4062C32.0096 33.4062 32.0053 33.4062 32.0011 33.4062C31.998 33.4062 31.995 33.4062 31.9918 33.4062C31.4203 33.4053 30.8558 33.2668 30.3416 33.0177C28.4595 32.1059 27.0486 30.7125 25.9965 29.2219C25.6181 30.6229 24.9161 32.1489 24.0783 32.9865C23.9967 33.0054 23.9158 33.0254 23.8347 33.0453C24.8123 36.6393 28.0962 39.2831 31.9998 39.2831C35.9035 39.2831 39.1873 36.6393 40.1648 33.0453C40.0838 33.0255 40.0028 33.0054 39.9212 32.9865C39.0848 32.15 38.3835 30.6267 38.0048 29.2272Z" fill="#FFAA7B"/>
<path d="M32.2703 33.3955C32.1851 33.4018 32.0996 33.406 32.0138 33.4062C32.0096 33.4062 32.0055 33.4062 32.0011 33.4062C31.9981 33.4062 31.995 33.4062 31.9918 33.4062C31.4203 33.4053 30.8558 33.2668 30.3416 33.0177C28.4595 32.1059 27.0486 30.7125 25.9965 29.2219C25.6182 30.6229 24.9161 32.1489 24.0783 32.9865C23.9967 33.0054 23.9157 33.0254 23.8347 33.0453C24.6886 36.1844 27.302 38.5983 30.551 39.159C31.6061 37.3104 32.072 35.1529 32.2703 33.3955Z" fill="#F7996B"/>
<path d="M43.1433 17.1987C42.6826 16.7765 41.7653 16.9905 41.3685 17.249C41.4554 17.7902 41.4604 18.3439 41.3853 18.8905L40.7925 22.2999C40.7925 22.5748 40.76 22.8444 40.744 23.1093C41.8855 23.4535 42.601 22.4288 42.6965 21.7255C42.7376 21.4228 42.8049 21.1244 42.8981 20.8333C43.2019 19.885 44.2973 18.2563 43.1433 17.1987Z" fill="#FFAA7B"/>
<path d="M20.8592 17.1987C21.3198 16.7765 22.2373 16.9905 22.6339 17.249C22.547 17.7902 22.542 18.3439 22.6172 18.8905L23.2099 22.2999C23.2099 22.5748 23.273 22.8444 23.2889 23.1093C22.1474 23.4535 21.4014 22.4288 21.3058 21.7255C21.2647 21.4228 21.1974 21.1244 21.1042 20.8333C20.8005 19.885 19.7052 18.2563 20.8592 17.1987Z" fill="#F7996B"/>
<path d="M41.0868 16.1957C40.9814 15.9209 40.8487 15.6425 40.6813 15.3799C40.3978 14.9351 40.2732 14.4091 40.3112 13.8846C40.4204 12.3761 40.3618 9.42574 38.3815 8.53462C36.699 7.77749 34.6352 8.21587 33.319 8.65362C32.4643 8.93787 31.5382 8.93787 30.6835 8.65362C29.3674 8.21599 27.3035 7.77762 25.621 8.53462C23.635 9.42824 23.5818 12.393 23.6923 13.8975C23.7305 14.418 23.6024 14.9386 23.3212 15.38C23.1662 15.6232 23.0408 15.88 22.9394 16.135C22.5889 17.0167 22.492 17.9791 22.621 18.9192L23.0853 22.3001C23.0853 22.3001 24.2413 30.3124 30.3418 33.2679C30.856 33.517 31.4205 33.6555 31.992 33.6564H32.0013H32.014C32.583 33.6552 33.1454 33.5185 33.6577 33.2707C39.5987 30.3971 40.8538 22.73 40.9172 22.3189C40.9172 22.3126 40.9174 22.3065 40.9174 22.3002L41.3855 18.8909C41.5102 17.9817 41.4155 17.0534 41.0868 16.1957Z" fill="#FFBB99"/>
<path d="M29.7413 22.3L29.4454 18.9192C29.3632 17.979 29.4249 17.0168 29.6483 16.1349C29.7129 15.8799 29.7928 15.6232 29.8916 15.3799C30.0708 14.9385 30.1524 14.4179 30.1281 13.8974C30.0628 12.5035 30.0879 9.85778 31.0982 8.76528C30.9587 8.7344 30.8198 8.6989 30.6833 8.65353C29.3672 8.2159 27.3034 7.77753 25.6209 8.53453C23.6349 9.42815 23.5817 12.3929 23.6922 13.8974C23.7304 14.4179 23.6023 14.9385 23.3211 15.3799C23.1661 15.6232 23.0407 15.8799 22.9393 16.1349C22.5887 17.0167 22.4919 17.979 22.6209 18.9192L23.0852 22.3C23.0852 22.3 24.2412 30.3123 30.3417 33.2678C30.8559 33.5169 31.4204 33.6554 31.9919 33.6563H32.0012H32.0138C32.5828 33.6552 33.1452 33.5184 33.6574 33.2707C33.8057 33.1989 33.9501 33.1235 34.0926 33.046C30.4438 29.932 29.7413 22.3 29.7413 22.3Z" fill="#FFAA7B"/>
<path d="M44.6376 10.5065C45.2173 10.4183 45.8554 9.96201 46.2064 9.67713C46.3326 9.57463 46.3065 9.37813 46.1605 9.30663C43.4176 7.96451 41.7698 3.61376 39.54 2.23276C37.6316 1.05076 35.986 1.73151 35.468 2.00626C35.3716 2.05738 35.2514 2.02938 35.1879 1.94076C34.4511 0.913883 33.2283 0.304508 32.5099 0.0165078C32.3181 -0.0603672 32.1353 0.142008 32.231 0.325133C32.5483 0.932133 32.6819 1.42651 32.7378 1.75263C32.768 1.92963 32.5833 2.06638 32.4223 1.98676C30.0169 0.797883 25.7396 1.64426 23.1285 4.83688C20.956 7.49326 19.282 7.89151 18.6785 7.94213C18.5419 7.95363 18.4485 8.08563 18.4836 8.21813C18.7175 9.10138 19.6196 9.67351 20.0015 9.88088C20.1076 9.93851 20.1519 10.0731 20.0913 10.1775C19.91 10.4896 19.5226 10.6789 19.2953 10.7675C19.1939 10.807 19.1375 10.9144 19.1614 11.0205C19.3808 11.9971 20.4158 16.4251 21.5115 18.1418C22.2754 19.3385 22.693 20.9551 22.9006 22.0144C22.9301 22.1649 23.1493 22.1514 23.16 21.9984C23.2415 20.8428 23.3598 18.9589 23.4059 17.1938C23.4625 15.0283 25.3543 13.7556 26.2163 13.287C26.3826 13.1965 26.5781 13.3451 26.5373 13.53L26.4195 14.0634C26.3858 14.2164 26.5176 14.3558 26.672 14.33C33.1335 13.2489 35.5063 11.0164 36.3726 9.62488C36.4331 9.52763 36.5511 9.48438 36.6603 9.51938C36.76 9.55138 36.8278 9.64288 36.8329 9.74751C37.0349 13.9051 40.2494 14.4118 40.7131 16.2561C41.0936 17.7694 40.9968 20.6405 40.9235 21.9953C40.9135 22.1805 41.1675 22.2468 41.2468 22.079C42.2546 19.947 42.1099 16.9993 43.7115 15.051C45.0129 13.468 45.6184 12.4295 45.8488 11.9883C45.9124 11.8665 45.8475 11.7209 45.7169 11.6785C45.1319 11.4893 44.7363 11.138 44.5025 10.868C44.3893 10.7371 44.4661 10.5326 44.6376 10.5065Z" fill="#404051"/>
<path d="M46.7968 33.5334C46.4358 33.4109 46.125 33.1706 45.9185 32.8502C45.2026 31.7399 43.0703 29.353 38.7623 31.258C38.7623 31.258 43.4082 33.0902 40.9707 39.2831C38.5332 45.476 32.0012 47.726 32.0012 47.726V48.5385C32.0012 48.5385 42.3287 48.1844 47.7662 42.101C52.9656 36.284 48.5008 34.1117 46.7968 33.5334Z" fill="#404051"/>
<path d="M17.2054 33.5334C17.5664 33.4109 17.8773 33.1706 18.0838 32.8502C18.7998 31.7399 20.9319 29.353 25.24 31.258C25.24 31.258 20.5941 33.0902 23.0316 39.2831C25.4691 45.476 32.0011 47.726 32.0011 47.726V48.5385C32.0011 48.5385 21.6736 48.1844 16.2361 42.101C11.0366 36.284 15.5014 34.1117 17.2054 33.5334Z" fill="#404051"/>
<path d="M16.6459 42.5376C16.7261 42.4471 16.7906 42.3429 16.8336 42.2279C17.5971 40.1825 19.3811 41.2309 20.3274 39.5412C21.3274 37.7557 22.7161 38.3789 22.7161 38.3789C21.0523 32.9104 25.2401 31.258 25.2401 31.258C20.932 29.353 18.7999 31.7399 18.0839 32.8502C17.8774 33.1706 17.5665 33.4109 17.2055 33.5334C15.5015 34.1116 11.0368 36.284 16.2363 42.101C16.3696 42.2504 16.5068 42.3951 16.6459 42.5376Z" fill="#2C2C42"/>
<path d="M47.0815 52.0798V60.0345C47.7213 59.6717 48.3465 59.2863 48.9565 58.88V52.0798C48.9565 51.562 48.5368 51.1423 48.019 51.1423C47.5013 51.1423 47.0815 51.5621 47.0815 52.0798Z" fill="#212135"/>
<path d="M17.0029 52.0798C17.0029 51.562 16.5832 51.1423 16.0654 51.1423C15.5477 51.1423 15.1279 51.562 15.1279 52.0798V58.9362C15.7379 59.3397 16.3634 59.7215 17.0029 60.0815V52.0798Z" fill="#212135"/>
<path d="M41.2838 46.242C42.2337 46.242 43.0037 45.472 43.0037 44.5221C43.0037 43.5723 42.2337 42.8022 41.2838 42.8022C40.334 42.8022 39.564 43.5723 39.564 44.5221C39.564 45.472 40.334 46.242 41.2838 46.242Z" fill="#2C2C42"/>
<path d="M22.716 46.242C23.6658 46.242 24.4358 45.472 24.4358 44.5221C24.4358 43.5723 23.6658 42.8022 22.716 42.8022C21.7661 42.8022 20.9961 43.5723 20.9961 44.5221C20.9961 45.472 21.7661 46.242 22.716 46.242Z" fill="#2C2C42"/>
<path d="M41.2839 43.9729C40.7662 43.9729 40.3464 44.3925 40.3464 44.9104V58.6219C40.3464 59.1398 40.7662 59.5594 41.2839 59.5594C41.8017 59.5594 42.2214 59.1398 42.2214 58.6219V44.9104C42.2214 44.3927 41.8017 43.9729 41.2839 43.9729Z" fill="#545460"/>
<path d="M41.2838 55.8044C40.5728 55.8044 39.9963 56.3808 39.9963 57.0919V59.1212C39.9963 59.8323 40.5727 60.4087 41.2838 60.4087C41.9948 60.4087 42.5713 59.8323 42.5713 59.1212V57.0919C42.5713 56.3808 41.9948 55.8044 41.2838 55.8044Z" fill="#EBF0F2"/>
<path d="M22.7159 43.9729C22.1982 43.9729 21.7784 44.3925 21.7784 44.9104V58.6219C21.7784 59.1398 22.1982 59.5594 22.7159 59.5594C23.2337 59.5594 23.6534 59.1398 23.6534 58.6219V44.9104C23.6534 44.3927 23.2337 43.9729 22.7159 43.9729Z" fill="#545460"/>
<path d="M22.716 55.8044C22.005 55.8044 21.4285 56.3808 21.4285 57.0919V59.1212C21.4285 59.8323 22.0048 60.4087 22.716 60.4087C23.4271 60.4087 24.0035 59.8323 24.0035 59.1212V57.0919C24.0035 56.3808 23.4271 55.8044 22.716 55.8044Z" fill="#EBF0F2"/>
<path d="M41.2838 58.4086C40.5728 58.4086 39.9963 57.8322 39.9963 57.1211V59.1211C39.9963 59.8322 40.5728 60.4086 41.2838 60.4086C41.995 60.4086 42.5713 59.8322 42.5713 59.1211V57.1211C42.5713 57.8323 41.9948 58.4086 41.2838 58.4086Z" fill="#C2D4E6"/>
<path d="M22.716 58.4086C22.005 58.4086 21.4285 57.8322 21.4285 57.1211V59.1211C21.4285 59.8322 22.0048 60.4086 22.716 60.4086C23.4271 60.4086 24.0035 59.8322 24.0035 59.1211V57.1211C24.0035 57.8323 23.4271 58.4086 22.716 58.4086Z" fill="#C2D4E6"/>
<path d="M30.1398 6.11836C26.9605 3.58311 32.4223 1.98699 32.4223 1.98699C30.0169 0.798111 25.7396 1.64449 23.1285 4.83711C20.956 7.49349 19.282 7.89174 18.6785 7.94236C18.5419 7.95386 18.4485 8.08586 18.4836 8.21836C18.7175 9.10161 19.6196 9.67374 20.0015 9.88111C20.1076 9.93874 20.1519 10.0734 20.0913 10.1777C19.91 10.4899 19.5226 10.6791 19.2953 10.7677C19.1939 10.8072 19.1375 10.9146 19.1614 11.0207C19.3808 11.9974 20.4158 16.4254 21.5115 18.142C22.2754 19.3387 22.693 20.9554 22.9006 22.0146C22.9301 22.1651 23.1493 22.1516 23.16 21.9986C23.2415 20.843 23.3598 18.9591 23.4058 17.194C23.4624 15.0285 25.3541 13.7559 26.2161 13.2872C26.3825 13.1967 26.578 13.3454 26.5371 13.5302L26.4194 14.0636C26.3856 14.2166 26.5175 14.356 26.672 14.3302C27.981 14.1112 29.1196 13.8444 30.1145 13.5475C28.7373 10.083 33.3186 8.65336 30.1398 6.11836Z" fill="#2C2C42"/>
</g>
<defs>
<clipPath id="clip0_44_15937">
<rect width="64" height="64" fill="white"/>
</clipPath>
</defs>
</svg>
