<svg width="16" height="17" viewBox="0 0 16 17" fill="none" xmlns="http://www.w3.org/2000/svg">
<g clip-path="url(#clip0_56_8642)">
<path d="M14.7101 3.40969V7.87979C14.7101 11.9507 11.9456 15.5004 7.99672 16.5C4.05445 15.5037 1.28992 11.9507 1.28992 7.87979V3.40969C4.39425 3.06 6.1526 1.87897 8.00002 0.5C9.84744 1.87897 11.6058 3.06 14.7101 3.40969Z" fill="#FFD15C"/>
<path d="M8 14.7351C5.02763 13.7915 2.98557 11.0336 2.98557 7.8798V4.85134C5.07381 4.39609 6.60783 3.55485 8 2.59485C9.42185 3.58124 10.9262 4.40598 13.0144 4.85464V7.8831C13.0144 11.0336 10.9724 13.7915 8 14.7351Z" fill="#F8B64C"/>
<path d="M6.88826 11.2348L5.23547 9.58202L6.07341 8.74078L6.88826 9.55232L9.92661 6.51727L10.7645 7.35521L6.88826 11.2348Z" fill="white"/>
</g>
<defs>
<clipPath id="clip0_56_8642">
<rect width="16" height="16" fill="white" transform="translate(0 0.5)"/>
</clipPath>
</defs>
</svg>
