<svg width="61" height="60" viewBox="0 0 61 60" fill="none" xmlns="http://www.w3.org/2000/svg">
<path d="M30.5 0C24.5666 0 18.7664 1.75947 13.8329 5.05591C8.89943 8.35235 5.05426 13.0377 2.78363 18.5195C0.512999 24.0013 -0.0811016 30.0333 1.07646 35.8527C2.23401 41.6721 5.09123 47.0176 9.28681 51.2132C13.4824 55.4088 18.8279 58.266 24.6473 59.4236C30.4667 60.5811 36.4987 59.987 41.9805 57.7164C47.4623 55.4458 52.1477 51.6006 55.4441 46.6671C58.7405 41.7336 60.5 35.9334 60.5 30C60.4971 22.0444 57.3355 14.4154 51.71 8.78998C46.0846 3.16451 38.4556 0.00287837 30.5 0ZM45.8 41.42L44.62 42.38H16.38L15.2 41.42L12.5 27.96L14.3 26.7L19.76 30.08L29.56 17.62H31.44L41.24 30.08L46.7 26.7L48.5 27.96L45.8 41.42Z" fill="#713694"/>
</svg>
