<svg width="64" height="64" viewBox="0 0 64 64" fill="none" xmlns="http://www.w3.org/2000/svg">
<path d="M42.3393 32.679V37.5793L36.8538 41.7097L31.3684 37.5793V32.679H42.3393Z" fill="#FED2A4"/>
<path d="M33.8686 37.5793V32.679H31.3684V37.5793L36.854 41.7097L38.1041 40.7683L33.8686 37.5793Z" fill="#FFBD86"/>
<path d="M15.5632 32.0026H7.66421C6.62863 32.0026 5.78906 31.163 5.78906 30.1274V18.2567C5.78906 17.2212 6.62863 16.3816 7.66421 16.3816H15.5632C16.5988 16.3816 17.4383 17.2212 17.4383 18.2567V24.1921L21.3214 28.1195H17.4383V30.1274C17.4383 31.163 16.5989 32.0026 15.5632 32.0026Z" fill="#75CC77"/>
<path d="M8.70142 43.6517H12.5845V39.5209C12.5845 38.4485 11.7152 37.5793 10.6429 37.5793C9.57061 37.5793 8.70142 38.4487 8.70142 39.5209V43.6517Z" fill="#FED2A4"/>
<path d="M11.5818 37.821C11.3037 37.6674 10.9831 37.5793 10.6429 37.5793C9.57061 37.5793 8.70142 38.4485 8.70142 39.5209V43.6517H10.5766V39.5209C10.5766 38.7887 10.9833 38.1518 11.5818 37.821Z" fill="#FFBD86"/>
<path d="M11.6803 55.301C12.7159 55.301 13.5554 54.4614 13.5554 53.4258V51.4179L20.6676 42.1855C21.095 41.6305 21.6693 41.2065 22.3254 40.9612L31.3722 37.5793L36.8539 41.7097L42.3355 37.5793L54.589 41.4396C56.7479 42.1435 58.2105 44.1561 58.2105 46.43V63.0626H21.3215V53.3595L14.6688 61.3972C13.9732 62.4405 12.8022 63.0672 11.5483 63.0672H11.481C9.40972 63.0672 7.73071 61.3882 7.73071 59.3169V55.3011L11.6803 55.301Z" fill="#42A5F5"/>
<path d="M39.3541 41.7097L44.0986 38.1348L42.3355 37.5793L38.104 40.7677L39.3541 41.7097Z" fill="#0593FC"/>
<path d="M21.3213 51.3811H23.8215V63.0625H21.3213V51.3811Z" fill="#0593FC"/>
<path d="M10.2309 59.3168V55.301H14.1805C15.216 55.301 16.0556 54.4614 16.0556 53.4258V51.4179L23.1678 42.1855C23.5952 41.6307 24.1695 41.2065 24.8255 40.9612L32.2013 38.204L31.3722 37.5793L22.3254 40.9612C21.6693 41.2065 21.095 41.6305 20.6676 42.1855L13.5554 51.4179V53.4258C13.5554 54.4614 12.7159 55.301 11.6803 55.301H7.73071V59.3168C7.73071 61.3881 9.40984 63.0671 11.481 63.0671H11.5483C11.9673 63.0671 12.378 62.9968 12.7639 62.8647C11.2911 62.3587 10.2309 60.9612 10.2309 59.3168Z" fill="#0593FC"/>
<path d="M21.3215 51.3811H50.4447V59.184H21.3215V51.3811Z" fill="#FFCA28"/>
<path d="M21.3215 51.3811H23.8217V59.184H21.3215V51.3811Z" fill="#F9B916"/>
<path d="M27.447 16.4702H25.5642C24.1215 16.4702 22.9519 17.6398 22.9519 19.0825V21.0401C22.9519 22.4828 24.1215 23.6524 25.5642 23.6524H27.447V16.4702Z" fill="#FED2A4"/>
<path d="M46.2605 16.4702H48.1433C49.586 16.4702 50.7556 17.6398 50.7556 19.0825V21.0401C50.7556 22.4828 49.586 23.6524 48.1433 23.6524H46.2605V16.4702Z" fill="#FED2A4"/>
<path d="M27.447 16.3814V25.4146C27.447 30.2138 31.3373 34.1041 36.1364 34.1041H37.5716C42.3707 34.1041 46.261 30.2138 46.261 25.4146V16.4702L36.854 12.5105L27.447 16.3814Z" fill="#FFF3DE"/>
<path d="M29.9472 25.4146V16.3814L38.09 13.0308L36.854 12.5105L27.447 16.3814V25.4146C27.447 30.2138 31.3373 34.1041 36.1364 34.1041H37.5716C37.7506 34.1041 37.9278 34.0969 38.1041 34.0863C33.5531 33.8108 29.9472 30.0347 29.9472 25.4146Z" fill="#FFE5C2"/>
<path d="M23.9355 16.4702H28.2498C30.321 16.4702 32.0001 14.7912 32.0001 12.7199V4.82056H29.561C26.4541 4.82056 23.9355 7.33913 23.9355 10.446V16.4702Z" fill="#546E7A"/>
<path d="M31.9998 4.82206V4.82056H29.5607C26.4539 4.82056 23.9353 7.33913 23.9353 10.446V16.4702H26.4355V10.446C26.4356 7.35963 28.9213 4.85493 31.9998 4.82206Z" fill="#435860"/>
<path d="M42.1143 0.937744C46.3659 0.937744 49.8124 4.38426 49.8124 8.63585V16.4702H35.75C33.6788 16.4702 31.9998 14.7912 31.9998 12.7199V4.68804C31.9998 2.61675 33.6788 0.937744 35.75 0.937744H42.1143Z" fill="#546E7A"/>
<path d="M34.5 12.7199V4.68804C34.5 2.61688 36.179 0.937744 38.2502 0.937744H35.75C33.6788 0.937744 31.9998 2.61688 31.9998 4.68804V12.7199C31.9998 14.7912 33.6788 16.4702 35.75 16.4702H38.2502C36.1791 16.4702 34.5 14.7912 34.5 12.7199Z" fill="#435860"/>
<path d="M7.66421 55.3011H11.6801C12.7157 55.3011 13.5553 54.4616 13.5553 53.426V45.527C13.5553 44.4914 12.7157 43.6519 11.6801 43.6519H7.66421C6.62863 43.6519 5.78906 44.4914 5.78906 45.527V53.426C5.78906 54.4616 6.62863 55.3011 7.66421 55.3011Z" fill="#FFF3DE"/>
<path d="M8.2895 53.426V45.527C8.2895 44.4914 9.12907 43.6519 10.1646 43.6519H7.66445C6.62887 43.6519 5.78931 44.4914 5.78931 45.527V53.426C5.78931 54.4616 6.62887 55.3011 7.66445 55.3011H10.1646C9.12894 55.3011 8.2895 54.4616 8.2895 53.426Z" fill="#FFE5C2"/>
<path d="M40.9019 22.0569C41.4198 22.0569 41.8395 21.6373 41.8395 21.1193V19.8887C41.8395 19.3708 41.4198 18.9512 40.9019 18.9512C40.384 18.9512 39.9644 19.3708 39.9644 19.8887V21.1193C39.9644 21.6373 40.3841 22.0569 40.9019 22.0569Z" fill="black"/>
<path d="M32.824 22.0569C33.342 22.0569 33.7616 21.6373 33.7616 21.1193V19.8887C33.7616 19.3708 33.342 18.9512 32.824 18.9512C32.3061 18.9512 31.8865 19.3708 31.8865 19.8887V21.1193C31.8865 21.6373 32.3063 22.0569 32.824 22.0569Z" fill="black"/>
<path d="M36.8538 29.5064C38.6673 29.5064 40.1427 28.0309 40.1427 26.2174C40.1427 25.6994 39.723 25.2798 39.2051 25.2798C38.6872 25.2798 38.2676 25.6994 38.2676 26.2174C38.2676 26.9969 37.6334 27.6312 36.8538 27.6312C36.0743 27.6312 35.4401 26.997 35.4401 26.2174C35.4401 25.6994 35.0204 25.2798 34.5025 25.2798C33.9846 25.2798 33.5649 25.6994 33.5649 26.2174C33.5649 28.0309 35.0403 29.5064 36.8538 29.5064Z" fill="black"/>
<path d="M58.2106 50.2752C58.7285 50.2752 59.1482 49.8555 59.1482 49.3376V46.4299C59.1482 43.7442 57.4328 41.3804 54.8708 40.5453L43.2768 36.8928V33.1628C45.9825 31.1651 47.3133 27.8969 47.1984 24.59C49.3494 24.7553 51.6932 23.4802 51.6932 21.0401V19.0827C51.6932 18.1452 51.3272 17.2918 50.7314 16.6567C50.7435 16.5964 50.75 13.9823 50.75 13.9823C50.75 13.4644 50.3304 13.0448 49.8124 13.0448C49.2945 13.0448 48.8749 13.4644 48.8749 13.9823V15.5325H35.7501C34.1992 15.5325 32.9374 14.2706 32.9374 12.7197V4.68787C32.9374 3.13699 34.1992 1.87515 35.7501 1.87515H42.1143C45.8421 1.87515 48.8749 4.90788 48.8749 8.63567V9.89577C48.8749 10.4137 49.2945 10.8333 49.8124 10.8333C50.3304 10.8333 50.75 10.4137 50.75 9.89577V8.63567C50.7501 3.87393 46.8761 0 42.1145 0H35.7502C33.4398 0 31.5158 1.68038 31.1329 3.88305H29.5609C25.9421 3.88305 22.9979 6.82728 22.9979 10.4461C22.9979 10.4461 23.0031 16.5713 23.0109 16.6202C22.3946 17.2591 22.0142 18.127 22.0142 19.0827V21.0401C22.0142 23.4423 24.3471 24.7743 26.5093 24.59C26.303 27.8779 27.7664 31.1956 30.4308 33.1628V36.9301L21.9959 40.0828C21.1751 40.3908 20.4588 40.9201 19.9249 41.6135L14.4928 48.6649V45.5267C14.4928 44.6799 14.116 43.9197 13.5219 43.4036V39.5207C13.5219 37.9332 12.2303 36.6416 10.6428 36.6416C9.05527 36.6416 7.76379 37.9332 7.76379 39.5207V42.714C5.78914 42.714 4.85156 43.8219 4.85156 45.5267V53.4258C4.85156 54.6725 5.66738 55.732 6.79284 56.0996V59.3171C6.79284 63.8267 12.6177 65.7864 15.4199 61.9598L20.3839 55.9624V63.0624C20.3839 63.5803 20.8036 64 21.3215 64H58.2106C58.7285 64 59.1482 63.5803 59.1482 63.0624V53.4242C59.1482 52.9063 58.7285 52.4866 58.2106 52.4866C57.6927 52.4866 57.273 52.9063 57.273 53.4242V62.1249H51.3822V49.6849C51.3822 49.167 50.9625 48.7473 50.4446 48.7473C49.9267 48.7473 49.507 49.167 49.507 49.6849V50.4438H22.2592V49.4762C22.2592 48.9583 21.8395 48.5387 21.3216 48.5387C20.8037 48.5387 20.384 48.9583 20.384 49.4762V53.0215L13.9464 60.7995C12.4115 62.6521 8.66811 62.7081 8.66811 59.3171V56.2386H11.6468V57.2426C11.6468 57.7605 12.0665 58.1802 12.5844 58.1802C13.1023 58.1802 13.522 57.7605 13.522 57.2426V55.549C14.1164 55.0328 14.4934 54.2725 14.4934 53.4253V51.7368L21.4105 42.7577C21.731 42.3414 22.1614 42.0235 22.6536 41.8388L31.2162 38.6383L36.2898 42.4584C36.6565 42.7346 37.1398 42.6711 37.4776 42.4134L42.5168 38.6191L54.2985 42.3308C56.0776 42.9109 57.273 44.558 57.273 46.4297V49.3375C57.273 49.8555 57.6928 50.2752 58.2106 50.2752ZM49.507 52.3191V58.2472H33.4113C32.8934 58.2472 32.4737 58.6668 32.4737 59.1847C32.4737 59.7027 32.8934 60.1223 33.4113 60.1223H49.5072V62.125H22.2592V60.1223H29.326C29.8439 60.1223 30.2635 59.7027 30.2635 59.1847C30.2635 58.6668 29.8439 58.2472 29.326 58.2472H22.2592V52.3191H49.507ZM9.63894 39.521C9.63894 38.9673 10.0893 38.517 10.6428 38.517C11.1964 38.517 11.6467 38.9674 11.6467 39.521V42.7142H9.63894V39.521ZM6.72683 45.5269C6.72683 45.0099 7.14737 44.5894 7.66441 44.5894H11.6802C12.1973 44.5894 12.6178 45.0099 12.6178 45.5269V46.5974H9.67231C9.1544 46.5974 8.73474 47.017 8.73474 47.535C8.73474 48.0529 9.1544 48.4725 9.67231 48.4725H12.6178V50.4806H9.67231C9.1544 50.4806 8.73474 50.9002 8.73474 51.4181C8.73474 51.9361 9.1544 52.3557 9.67231 52.3557H12.6178V53.4262C12.6178 54.0513 12.2386 54.3212 11.6808 54.3632L7.66441 54.3637C7.14737 54.3637 6.72683 53.9432 6.72683 53.4262V45.5269ZM49.8182 21.0401C49.8182 21.9637 49.0669 22.7149 48.1434 22.7149H47.1985V17.4079H48.1434C49.067 17.4079 49.8182 18.1592 49.8182 19.0826V21.0401ZM24.873 10.4461C24.873 7.86111 26.9759 5.7582 29.5609 5.7582H31.0624V12.7197V12.72C31.0624 14.2709 29.8005 15.5327 28.2496 15.5327H27.447H24.873V10.4461ZM25.5642 22.7149C24.6406 22.7149 23.8894 21.9636 23.8894 21.0401V19.0827C23.8894 18.1592 24.6407 17.408 25.5642 17.408H26.5094V22.715L25.5642 22.7149ZM28.3845 25.4147V17.4045C29.8613 17.3625 31.1694 16.6355 32.0001 15.5293C32.856 16.6689 34.2185 17.4076 35.7502 17.4076H45.3231L45.3233 25.4147C45.3233 35.7173 28.3845 35.7053 28.3845 25.4147ZM41.4017 34.2447V37.1089L36.8541 40.5357L32.3061 37.1088V34.2448C34.5418 35.5862 39.0004 35.5028 41.4017 34.2447Z" fill="black"/>
<path d="M9.98006 26.7964C10.4221 27.1625 10.8641 27.1625 11.306 26.7964L15.1891 22.9132C15.5552 22.547 15.5552 21.9534 15.189 21.5873C14.8229 21.2212 14.2293 21.2212 13.8631 21.5873L10.6431 24.8075L9.36451 23.5288C8.99823 23.1628 8.40468 23.1628 8.03853 23.5288C7.67238 23.8951 7.67238 24.4886 8.03853 24.8548L9.98006 26.7964Z" fill="black"/>
<path d="M7.66428 32.94H15.5633C17.1141 32.94 18.376 31.6781 18.376 30.1272V29.0568H21.3216C22.3117 29.0489 22.7492 28.2937 21.9883 27.46L18.376 23.8065V18.2566C18.376 16.7057 17.1141 15.4438 15.5633 15.4438H7.66428C6.11341 15.4438 4.85156 16.7057 4.85156 18.2566V30.1272C4.85156 31.6781 6.11329 32.94 7.66428 32.94ZM6.72671 18.2566C6.72671 17.7395 7.14724 17.319 7.66428 17.319H15.5633C16.0803 17.319 16.5008 17.7395 16.5008 18.2566V24.1919C16.5008 24.4388 16.5981 24.6756 16.7717 24.8511L19.0762 27.1818H17.4384C16.9205 27.1818 16.5008 27.6014 16.5008 28.1193V30.1272C16.5008 30.6443 16.0803 31.0648 15.5633 31.0648H7.66428C7.14724 31.0648 6.72671 30.6443 6.72671 30.1272V18.2566Z" fill="black"/>
</svg>
