<svg width="24" height="15" viewBox="0 0 24 15" fill="none" xmlns="http://www.w3.org/2000/svg">
<path d="M7.61692 11.5008C4.4198 12.2763 0.905913 9.57046 0.840103 6.27843C1.24713 5.65587 1.77588 5.12208 2.39455 4.70917C3.01322 4.29626 3.70902 4.01276 4.4401 3.87574C4.07534 4.24077 3.81665 4.69809 3.69171 5.19878C3.34816 6.4524 3.88598 9.88037 7.61692 11.5008ZM7.94184 8.46281C7.54359 8.70282 7.09178 8.83973 6.6273 8.86113C6.16281 8.88254 5.70033 8.78777 5.28169 8.58541C6.12749 9.85631 7.44198 10.7407 8.93789 11.0454C9.0667 10.9846 11.1127 9.81023 11.1127 9.81023L9.73506 7.42405L7.94184 8.46281ZM16.7361 6.56014C17.1332 6.32127 17.5834 6.18481 18.0463 6.16304C18.5093 6.14126 18.9703 6.23484 19.3881 6.43538C18.9718 5.8057 18.4352 5.26443 17.8092 4.84266C17.1831 4.42089 16.4799 4.12691 15.74 3.97759C15.6112 4.0383 13.5652 5.21274 13.5652 5.21274L14.9428 7.59887L16.7361 6.56014ZM23.7241 10.2029C22.7126 11.2224 21.3875 11.8721 19.962 12.0472C18.3448 12.1931 16.6342 12.1301 15.6713 10.5339L11.3876 3.11438C10.8392 2.13693 10.0077 1.34844 9.00244 0.852723C7.99723 0.357001 6.86547 0.177279 5.75614 0.337212C4.64342 0.471402 3.59716 0.938462 2.75433 1.67724C1.9115 2.41602 1.3114 3.39208 1.03259 4.47762C1.00229 4.5907 0.976044 4.70485 0.953854 4.82006C2.6801 2.88688 7.41259 1.83407 9.00661 4.48904L13.2903 11.9085C15.7301 16.2671 22.4112 15.3787 23.6453 10.5454C23.6756 10.4323 23.7019 10.3181 23.7241 10.2029ZM21.0362 8.47415C21.1214 8.9511 21.0935 9.44138 20.9548 9.90561C20.8162 10.3698 20.5706 10.7951 20.2378 11.1472C20.9689 11.0102 21.6647 10.7267 22.2834 10.3137C22.9021 9.9008 23.4308 9.36699 23.8379 8.74441C23.7876 7.93655 23.5653 7.14875 23.1859 6.43374C22.8066 5.71872 22.2788 5.09298 21.6381 4.59838C20.9974 4.10379 20.2584 3.75175 19.4706 3.56582C18.6828 3.37989 17.8644 3.36437 17.0701 3.52028C18.104 3.93127 19.0132 4.60404 19.7085 5.47254C20.4039 6.34104 20.8614 7.37542 21.0362 8.47415Z" fill="url(#paint0_linear_28_9865)"/>
<defs>
<linearGradient id="paint0_linear_28_9865" x1="1.03165" y1="4.4811" x2="23.6469" y2="10.5409" gradientUnits="userSpaceOnUse">
<stop stop-color="#FF81FF"/>
<stop offset="1" stop-color="#A93AFF"/>
</linearGradient>
</defs>
</svg>
